<?xml version="1.0" encoding="utf-8"?>
<!-- Generator: Adobe Illustrator 26.0.1, SVG Export Plug-In . SVG Version: 6.00 Build 0)  -->
<svg version="1.1" id="Layer_1" xmlns="http://www.w3.org/2000/svg" xmlns:xlink="http://www.w3.org/1999/xlink" x="0px" y="0px"
	 viewBox="0 0 800 800" style="enable-background:new 0 0 800 800;" xml:space="preserve">
<style type="text/css">
	
		.st0{fill:none;stroke:#35DFFF;stroke-width:32;stroke-linecap:round;stroke-linejoin:round;stroke-miterlimit:8;stroke-opacity:0.9;}
</style>
<path class="st0" d="M195.7,109.3c158.7,9.7,230.4-3.4,280.4-3.4c46.5,0,68.4,153,49.3,198.1c-18,42.6-324.7,44.3-339,27.4
	c-16.5-19.5-7-101-7-128.9"/>
<path class="st0" d="M196.7,381.4C-21.3,583,242.5,547,296.5,590.2"/>
<path class="st0" d="M196.7,381.4c2.9,46,5.7,150,3.9,164.4"/>
<path class="st0" d="M416.6,272.5c0-8.6,0-17.1,0-25.7"/>
<path class="st0" d="M354.6,274.5c-0.5-6.8,0-22.3,0-27.7"/>
<path class="st0" d="M406.8,483.4c297.4-3.6,343-30,218.3,200.3"/>
<path class="st0" d="M571.1,690.9c-177.5-7.2-297.4,57.6-214.7-161.9"/>
<path class="st0" d="M360,690.9c-38.5-28.1-81.4-50.5-118.7-81.5"/>
<path class="st0" d="M436.8,380.3c1.3,30.8,2.4,61.5,2.4,92.3"/>
<path class="st0" d="M436.8,380.3c15,23.8,29.1,39.2,46.8,80.3"/>
<path class="st0" d="M160.2,238.1c-9,2.4-18.1,1.9-27.4,2.7"/>
<path class="st0" d="M119.2,218.9c0.1,16.6,0,32.9-1.4,49.2"/>
<path class="st0" d="M555.5,231.2c6.8-0.7,13.7-1.6,20.5-2.7"/>
<path class="st0" d="M582.8,209.4c1.9,10.9,1.4,21.9,1.4,32.8"/>
<path class="st0" d="M451.5,232.9c-44.8-4.9-88.2-2.6-131.3,4.2"/>
</svg>
