<svg id="Capa_1" data-name="Capa 1" xmlns="http://www.w3.org/2000/svg" viewBox="0 0 800 683.16"><defs><style>.cls-1{fill:#35dfff;}</style></defs><path class="cls-1" d="M794,554.89,637.91,398.78c49.26-63.53,44.88-155.5-13.44-213.81-63.21-63.21-166.06-63.21-229.27,0S332,351,395.2,414.25c58.31,58.3,150.27,62.68,213.81,13.44l156.11,156.1a20.44,20.44,0,1,0,28.9-28.9ZM595.57,385.34a121.24,121.24,0,1,1,0-171.46A121.37,121.37,0,0,1,595.57,385.34Z" transform="translate(0 -58.42)"/><path class="cls-1" d="M39.46,521.38V97.88h702.3V477.33l39.46,39.45V93.93a35.56,35.56,0,0,0-35.51-35.51H35.51A35.56,35.56,0,0,0,0,93.93V525.32a35.56,35.56,0,0,0,35.51,35.51H319.68V673.31a24.63,24.63,0,0,0,24.6,24.61h76.87a24.62,24.62,0,0,0,24.59-24.61V560.83H722.83l-39.46-39.45ZM344.28,673.31V560.83h76.87v112.5Z" transform="translate(0 -58.42)"/><path class="cls-1" d="M508.9,647.68v23.68a3.07,3.07,0,0,1-3.06-3.06v49.61H259.59V668.3a3.07,3.07,0,0,1-3.06,3.06V647.68a20.64,20.64,0,0,0-20.62,20.62V721a20.64,20.64,0,0,0,20.62,20.62H508.9A20.64,20.64,0,0,0,529.52,721V668.3A20.64,20.64,0,0,0,508.9,647.68Z" transform="translate(0 -58.42)"/><path class="cls-1" d="M302.06,479.78h60.42a4.45,4.45,0,0,0,4.45-4.45V401.16a176.31,176.31,0,0,1-26.33-57.92l-43,44.74v87.36A4.44,4.44,0,0,0,302.06,479.78Z" transform="translate(0 -58.42)"/><path class="cls-1" d="M470.41,479.78a4.46,4.46,0,0,0,4.46-4.45v-2.08a175.48,175.48,0,0,1-69.32-31.94v34a4.45,4.45,0,0,0,4.45,4.45Z" transform="translate(0 -58.42)"/><path class="cls-1" d="M470.41,376.8H441.13a104.73,104.73,0,0,0,33.74,21.14V381.26A4.44,4.44,0,0,0,470.41,376.8Z" transform="translate(0 -58.42)"/><path class="cls-1" d="M572.43,479.78a4.45,4.45,0,0,0,4.45-4.45v-10a178.84,178.84,0,0,1-64.25,12c-1.58,0-3.13-.17-4.68-.22a4.43,4.43,0,0,0,4.06,2.66Z" transform="translate(0 -58.42)"/><path class="cls-1" d="M568.64,284.73A16.22,16.22,0,0,1,558.25,281l-11-9.18-39.7,43.32v89.66c1.75.09,3.48.25,5.25.25a104.66,104.66,0,0,0,64.07-21.77V282.43c-.25.15-.47.32-.73.46A16.34,16.34,0,0,1,568.64,284.73Z" transform="translate(0 -58.42)"/><path class="cls-1" d="M455.29,353.64l91.63-99.95,21.44,17.92a3.39,3.39,0,0,0,3.73.4,3.43,3.43,0,0,0,1.81-3.29l-4.66-52a3.37,3.37,0,0,0-3.65-3.06l-52,4.64a3.41,3.41,0,0,0-2.92,2.35,3.91,3.91,0,0,0-.14,1.31,3.3,3.3,0,0,0,1.2,2.28l21.47,18-87,94.95L410.34,324a105.15,105.15,0,0,0,7.78,21.86L445.64,356A8.89,8.89,0,0,0,455.29,353.64Z" transform="translate(0 -58.42)"/><path class="cls-1" d="M335.26,305,276.43,366.2a8.91,8.91,0,1,0,12.84,12.35l48.23-50.19A180.41,180.41,0,0,1,335.26,305Z" transform="translate(0 -58.42)"/></svg>