<?xml version="1.0" encoding="utf-8"?>
<!-- Generator: Adobe Illustrator 26.0.1, SVG Export Plug-In . SVG Version: 6.00 Build 0)  -->
<svg version="1.1" id="Layer_1" xmlns="http://www.w3.org/2000/svg" xmlns:xlink="http://www.w3.org/1999/xlink" x="0px" y="0px"
	 viewBox="0 0 800 800" style="enable-background:new 0 0 800 800;" xml:space="preserve">
<style type="text/css">
	.st0{fill:#35DFFF;}
</style>
<path class="st0" d="M154.5,618.6l47.4-224.1c1.8-8.6-3.7-17.1-12.3-19c-8.6-1.8-17.1,3.7-19,12.3l-47.4,224.1
	c-1.8,8.6,3.7,17.1,12.3,19S152.7,627.2,154.5,618.6L154.5,618.6z M600.6,394.5l48.3,224.3c1.9,8.6,10.4,14.1,19,12.3
	s14.1-10.4,12.3-19l-48.3-224.3c-1.9-8.6-10.4-14.1-19-12.3C604.3,377.4,598.8,385.9,600.6,394.5L600.6,394.5z"/>
<path class="st0" d="M755.8,302.3L418.7,162.6c-8.3-3.4-23.9-3.5-32.2-0.1L45.2,302.3L386.5,442c8.3,3.4,23.9,3.4,32.2-0.1
	L755.8,302.3L755.8,302.3z M430.9,471.5c-16.1,6.7-40.5,6.7-56.6,0.1L19.1,326.2c-25.5-10.4-25.5-37.4,0-47.8l355.3-145.4
	c16.1-6.6,40.5-6.5,56.6,0.1l350.7,145.3c25.4,10.5,25.4,37.4,0,47.9L430.9,471.5z M656.5,601.6c-76.6,45-163.8,69-254.6,69
	c-90.9,0-178.3-24.1-254.9-69.2c-7.6-4.5-17.4-1.9-21.9,5.7c-4.5,7.6-1.9,17.4,5.7,21.9c81.5,48,174.5,73.6,271.1,73.6
	c96.5,0,189.4-25.6,270.8-73.4c7.6-4.5,10.2-14.3,5.7-21.9C673.9,599.7,664.1,597.2,656.5,601.6L656.5,601.6z"/>
<path class="st0" d="M768.7,299.3v231.4c0,8.8,7.2,16,16,16c8.8,0,16-7.2,16-16V299.3c0-8.8-7.2-16-16-16
	C775.9,283.3,768.7,290.4,768.7,299.3L768.7,299.3z"/>
</svg>
